<svg xmlns="http://www.w3.org/2000/svg" width="512" height="512" viewBox="0 0 24 24">
    <rect width="24" height="24" fill="#2263DB"/>
    <path d="M11 14h2a2 2 0 1 0 0-4h-3c-.6 0-1.1.2-1.4.6L3 16" stroke="white" stroke-width="1.5" stroke-linecap="round" stroke-linejoin="round" fill="none"/>
    <path d="m7 20 1.6-1.4c.3-.4.8-.6 1.4-.6h4c1.1 0 2.1-.4 2.8-1.2l4.6-4.4a2 2 0 0 0-2.7-2.9l-4.2 4.1c-.3.3-.7.5-1.2.5h-2.1" stroke="white" stroke-width="1.5" stroke-linecap="round" stroke-linejoin="round" fill="none"/>
    <path d="M19 14V8s-1-1.5-3-1.5-3 1.5-3 1.5V14a2.8 2.8 0 0 0 5.4.8Z" stroke="white" stroke-width="1.5" stroke-linecap="round" stroke-linejoin="round" fill="none"/>
</svg>
